<svg viewBox="0 0 500 500" xmlns="http://www.w3.org/2000/svg" xmlns:xlink="http://www.w3.org/1999/xlink" width="100%" id="blobSvg">
  <defs>
    <pattern id="pattern" x="0" y="0" width="28" height="49" patternUnits="userSpaceOnUse" fill="#d1d8e0">
      <path d="M13.99 9.25l13 7.5v15l-13 7.5L1 31.75v-15l12.99-7.5zM3 17.9v12.7l10.99 6.34 11-6.35V17.9l-11-6.34L3 17.9zM0 15l12.98-7.5V0h-2v6.35L0 12.69v2.3zm0 18.5L12.98 41v8h-2v-6.85L0 35.81v-2.3zM15 0v7.5L27.99 15H28v-2.31h-.01L17 6.35V0h-2zm0 49v-8l12.99-7.5H28v2.31h-.01L17 42.15V49h-2z"></path>
    </pattern>
  </defs>
  <path id="blob" d="M457,299.5Q456,349,424,389Q392,429,345,444.5Q298,460,249.5,461.5Q201,463,152.5,448Q104,433,82,387Q60,341,48.5,295.5Q37,250,31,196Q25,142,69.5,110.5Q114,79,159,63Q204,47,254,31Q304,15,339.5,54Q375,93,411.5,124Q448,155,453,202.5Q458,250,457,299.5Z" fill="url(#pattern)"></path>
</svg>